<?xml version="1.0" standalone="no"?>
<!DOCTYPE svg PUBLIC "-//W3C//DTD SVG 20010904//EN"
 "http://www.w3.org/TR/2001/REC-SVG-20010904/DTD/svg10.dtd">
<svg version="1.0" xmlns="http://www.w3.org/2000/svg"
 width="3400.000000pt" height="1383.000000pt" viewBox="0 0 3400.000000 1383.000000"
 preserveAspectRatio="xMidYMid meet">
<metadata>
Created by potrace 1.16, written by Peter Selinger 2001-2019
</metadata>
<g transform="translate(0.000000,1383.000000) scale(0.100000,-0.100000)"
fill="#000000" stroke="none">
<path d="M6405 11814 c-950 -102 -1839 -469 -2585 -1068 -155 -125 -308 -267
-325 -303 -38 -79 4 -176 90 -209 69 -26 103 -11 231 102 748 660 1569 1037
2541 1166 147 20 213 22 538 23 398 0 490 -6 780 -55 1183 -198 2245 -853
2962 -1827 469 -636 752 -1345 864 -2168 30 -221 38 -738 14 -977 -110 -1119
-583 -2108 -1381 -2888 -1094 -1069 -2633 -1525 -4129 -1224 -1191 240 -2254
954 -2930 1969 -444 667 -697 1393 -765 2190 -13 156 -13 579 0 742 67 827
346 1591 839 2297 107 154 111 161 111 212 0 43 -5 59 -27 85 -59 69 -161 86
-216 35 -38 -35 -157 -200 -245 -338 -424 -663 -667 -1352 -757 -2148 -21
-190 -21 -826 1 -1023 110 -1008 484 -1887 1138 -2672 130 -156 427 -452 586
-584 778 -649 1681 -1033 2672 -1136 175 -18 757 -21 955 -4 875 72 1753 408
2488 954 278 206 614 521 824 775 651 781 1022 1654 1136 2671 21 186 21 822
0 1008 -58 521 -181 995 -375 1441 -612 1414 -1848 2466 -3325 2830 -230 57
-483 102 -703 124 -197 21 -816 20 -1007 0z"/>
<path d="M13300 6915 l0 -4915 150 0 150 0 0 4915 0 4915 -150 0 -150 0 0
-4915z"/>
<path d="M15070 9515 l0 -2315 235 0 235 0 2 1743 3 1742 1841 -1837 c1012
-1011 1843 -1838 1847 -1838 4 0 7 1085 7 2410 0 1326 -3 2410 -7 2410 -5 0
-474 -466 -1043 -1035 l-1035 -1035 -1035 1035 c-569 569 -1038 1035 -1042
1035 -5 0 -8 -1042 -8 -2315z m3690 -97 l0 -1263 -636 635 -635 635 631 628
c347 345 633 627 636 627 2 0 4 -568 4 -1262z"/>
<path d="M6600 10980 c-1154 -101 -2164 -639 -2879 -1535 -470 -588 -756
-1280 -857 -2070 -28 -215 -25 -741 5 -960 107 -787 393 -1459 878 -2065 132
-166 399 -434 567 -574 472 -389 1029 -671 1611 -815 234 -58 502 -101 630
-101 69 0 77 2 109 30 73 65 65 204 -14 245 -16 8 -98 24 -182 35 -461 62
-853 182 -1253 384 -351 178 -633 381 -929 667 l-89 86 409 404 c225 222 525
518 667 658 l259 253 76 -74 c196 -188 653 -620 705 -666 57 -52 58 -52 124
-52 l66 0 319 317 318 317 185 -191 c102 -105 201 -201 220 -213 46 -28 114
-29 159 -1 19 12 155 138 302 280 257 248 270 259 288 243 10 -9 307 -309 660
-666 l641 -649 -100 -95 c-568 -540 -1312 -893 -2100 -997 -163 -21 -201 -32
-230 -67 -21 -25 -25 -40 -25 -100 0 -68 1 -71 39 -109 36 -37 42 -39 99 -39
161 0 551 73 811 151 293 88 627 233 877 380 123 72 349 226 474 323 137 105
525 488 632 622 504 634 804 1347 894 2129 25 213 25 704 0 905 -36 298 -99
583 -188 845 -371 1101 -1201 1997 -2274 2454 -349 148 -738 250 -1138 296
-158 18 -623 27 -766 15z m705 -315 c643 -72 1235 -293 1755 -654 342 -237
690 -584 936 -931 212 -299 389 -651 504 -1005 128 -395 181 -738 181 -1160
-1 -319 -28 -565 -96 -860 -20 -87 -102 -367 -122 -413 l-14 -33 -77 70 c-42
38 -270 264 -507 501 -236 237 -483 481 -547 541 l-117 109 -53 0 c-35 0 -64
-7 -85 -20 -18 -11 -202 -187 -409 -392 l-377 -373 -608 614 -609 614 0 248 0
249 610 0 c493 0 617 3 643 14 47 19 85 68 92 120 8 52 -3 76 -154 334 -56 95
-101 176 -101 178 0 3 57 105 127 227 118 206 127 226 127 274 0 57 -17 90
-68 127 -27 21 -41 21 -649 26 l-622 5 -5 97 c-5 94 -6 99 -38 130 -29 30 -38
33 -107 36 l-75 4 -40 -40 -40 -40 0 -994 0 -994 -812 -803 -812 -802 -351
349 c-192 192 -367 363 -388 380 -31 27 -46 32 -88 32 -36 0 -60 -6 -82 -22
-18 -12 -213 -202 -434 -422 -222 -220 -404 -398 -407 -395 -10 11 -89 261
-120 381 -45 171 -69 302 -96 513 -19 151 -21 205 -18 480 5 339 19 473 79
748 106 484 313 955 597 1361 232 330 598 696 928 928 513 360 1120 590 1749
662 168 19 634 20 800 1z m670 -1907 c4 -3 -27 -65 -69 -137 -84 -147 -98
-184 -86 -235 4 -20 42 -94 84 -165 42 -72 76 -135 76 -141 0 -7 -147 -10
-460 -10 l-460 0 0 351 0 351 454 -3 c250 -2 457 -7 461 -11z m-488 -2356
l572 -579 -112 -109 c-62 -60 -158 -154 -214 -209 l-103 -100 -213 213 -213
212 -64 0 -64 0 -321 -321 -322 -320 -342 328 -341 327 32 32 c18 18 278 273
578 568 299 295 547 536 550 536 3 0 263 -260 577 -578z m2789 -1189 c-54
-110 -136 -247 -236 -398 -100 -148 -228 -318 -238 -313 -4 2 -298 298 -655
658 l-647 655 322 322 323 323 585 -585 585 -585 -39 -77z m-5366 236 c0 -10
-910 -899 -920 -899 -30 0 -299 401 -411 615 l-59 110 393 392 392 393 302
-302 c167 -167 303 -306 303 -309z"/>
<path d="M6045 10053 c-66 -17 -339 -110 -422 -144 -264 -110 -566 -289 -798
-475 -141 -113 -376 -348 -488 -489 -336 -420 -556 -903 -656 -1435 -34 -184
-36 -222 -12 -269 25 -47 54 -70 104 -78 92 -15 158 30 176 120 6 28 24 120
41 202 88 452 297 903 586 1265 87 109 345 367 454 454 284 226 624 405 995
521 179 57 200 66 220 105 20 38 19 113 -1 156 -29 62 -110 89 -199 67z"/>
<path d="M27015 9995 c-315 -52 -590 -197 -812 -428 -185 -194 -306 -427 -365
-700 -28 -133 -30 -386 -5 -524 106 -578 532 -1023 1106 -1154 111 -26 363
-36 484 -20 546 73 991 439 1168 961 72 212 94 495 55 710 -54 297 -193 557
-410 768 -196 191 -428 316 -691 372 -132 28 -401 36 -530 15z m352 -476 c297
-40 579 -241 713 -509 78 -154 106 -289 97 -468 -16 -348 -227 -658 -550 -807
-380 -176 -843 -66 -1108 262 -144 180 -210 368 -210 602 1 347 200 669 514
826 181 91 351 121 544 94z"/>
<path d="M20200 8590 l0 -1390 240 0 240 0 0 1390 0 1390 -240 0 -240 0 0
-1390z"/>
<path d="M22370 9969 c-429 -49 -706 -250 -802 -585 -18 -65 -22 -103 -22
-209 1 -112 4 -141 27 -210 72 -218 236 -357 538 -455 52 -17 182 -49 289 -71
502 -103 628 -157 670 -285 18 -53 8 -178 -18 -236 -42 -96 -153 -173 -307
-214 -99 -25 -327 -26 -450 0 -153 32 -328 101 -437 173 -21 14 -40 24 -41 22
-77 -101 -278 -381 -275 -383 1 -2 33 -24 70 -49 261 -177 556 -267 878 -267
354 0 640 102 841 300 135 133 206 283 230 484 35 301 -91 560 -346 706 -152
87 -276 125 -652 204 -359 75 -500 135 -534 224 -22 58 -3 161 42 224 35 48
130 103 221 128 113 31 341 39 442 16 87 -21 196 -78 308 -161 l88 -65 84 103
c177 215 206 252 206 263 0 12 -145 123 -234 179 -230 146 -499 200 -816 164z"/>
<path d="M24460 8590 l0 -1390 240 0 240 0 0 1390 0 1390 -240 0 -240 0 0
-1390z"/>
<path d="M30618 9964 c-156 -24 -338 -96 -470 -186 l-58 -39 0 76 0 75 -240 0
-240 0 0 -1345 0 -1345 240 0 239 0 4 853 c3 956 -2 890 80 1057 33 69 58 102
132 176 76 76 105 98 185 138 111 54 201 76 320 76 117 0 207 -22 319 -76 80
-39 108 -60 181 -133 125 -127 186 -245 210 -407 6 -41 10 -394 10 -876 l0
-808 235 0 236 0 -3 893 -3 892 -27 98 c-96 348 -317 619 -632 772 -230 112
-469 148 -718 109z"/>
<path d="M15070 6195 l0 -245 850 0 850 0 0 -1975 0 -1975 240 0 240 0 0 1975
0 1975 850 0 850 0 0 245 0 245 -1940 0 -1940 0 0 -245z"/>
<path d="M19050 3385 l0 -1385 240 0 240 0 0 1385 0 1385 -240 0 -240 0 0
-1385z"/>
</g>
</svg>
